<?xml version="1.0" encoding="UTF-8" standalone="no"?>
<!-- Created with Inkscape (http://www.inkscape.org/) -->

<svg
   xmlns:dc="http://purl.org/dc/elements/1.1/"
   xmlns:cc="http://creativecommons.org/ns#"
   xmlns:rdf="http://www.w3.org/1999/02/22-rdf-syntax-ns#"
   xmlns:svg="http://www.w3.org/2000/svg"
   xmlns="http://www.w3.org/2000/svg"
   xmlns:sodipodi="http://sodipodi.sourceforge.net/DTD/sodipodi-0.dtd"
   xmlns:inkscape="http://www.inkscape.org/namespaces/inkscape"
   width="800"
   height="400"
   id="svg2"
   version="1.1"
   inkscape:version="0.48.2 r9819"
   sodipodi:docname="coco.svg">
  <defs
     id="defs4" />
  <sodipodi:namedview
     id="base"
     pagecolor="#ffffff"
     bordercolor="#666666"
     borderopacity="1.0"
     inkscape:pageopacity="0.0"
     inkscape:pageshadow="2"
     inkscape:zoom="2.8284271"
     inkscape:cx="236.4278"
     inkscape:cy="348.95029"
     inkscape:document-units="px"
     inkscape:current-layer="g3008"
     showgrid="true"
     inkscape:snap-bbox="false"
     inkscape:window-width="1440"
     inkscape:window-height="838"
     inkscape:window-x="-8"
     inkscape:window-y="-8"
     inkscape:window-maximized="1">
    <inkscape:grid
       type="xygrid"
       id="grid3015"
       empspacing="5"
       visible="true"
       enabled="true"
       snapvisiblegridlinesonly="true" />
  </sodipodi:namedview>
  <metadata
     id="metadata7">
    <rdf:RDF>
      <cc:Work
         rdf:about="">
        <dc:format>image/svg+xml</dc:format>
        <dc:type
           rdf:resource="http://purl.org/dc/dcmitype/StillImage" />
        <dc:title></dc:title>
      </cc:Work>
    </rdf:RDF>
  </metadata>
  <g
     inkscape:label="Camada 1"
     inkscape:groupmode="layer"
     id="layer1"
     transform="translate(0,-652.36218)">
    <g
       id="g3008"
       transform="matrix(0.11187825,0,0,0.11187825,150.14595,647.13948)">
      <path
         style="opacity:0.98999999;fill:#eeeeee;stroke:#000000;stroke-width:8.93828773;stroke-linejoin:miter;stroke-miterlimit:4;stroke-dasharray:none"
         d="m 311.53553,341.64549 44.69144,-17.87657 44.69144,0 44.69144,17.87657 0,125.13603 -44.69144,17.87658 -44.69144,0 -44.69144,-17.87658 z"
         id="rect2985"
         inkscape:connector-curvature="0"
         sodipodi:nodetypes="ccccccccc"
         inkscape:export-filename="C:\Users\mauricio\projects\space5\client\res\gfx\coco.png"
         inkscape:export-xdpi="75"
         inkscape:export-ydpi="75" />
      <path
         style="opacity:0.98999999;fill:#eeeeee;stroke:#000000;stroke-width:8.93828773;stroke-linejoin:miter;stroke-miterlimit:4"
         d="m 338.3504,520.41144 17.87657,-17.87677 44.69144,0 17.87665,17.87677 0,107.25924 -80.44466,0 z"
         id="rect2989"
         inkscape:connector-curvature="0"
         sodipodi:nodetypes="ccccccc"
         inkscape:export-filename="C:\Users\mauricio\projects\space5\client\res\gfx\coco.png"
         inkscape:export-xdpi="75"
         inkscape:export-ydpi="75" />
      <path
         style="opacity:0.98999999000000005;fill:#eeeeee;stroke:#000000;stroke-width:8.93828783000000020;stroke-miterlimit:4;stroke-dasharray:none;stroke-linejoin:miter"
         d="m 356.22697,225.44775 44.69144,0 17.87657,26.81487 0,35.75315 -17.87657,26.81486 -44.69144,0 -17.87658,-26.81486 0,-35.75315 z"
         id="rect2999"
         inkscape:connector-curvature="0"
         sodipodi:nodetypes="ccccccccc"
         inkscape:export-filename="C:\Users\mauricio\projects\space5\client\res\gfx\coco.png"
         inkscape:export-xdpi="75"
         inkscape:export-ydpi="75" />
      <path
         sodipodi:nodetypes="cccccccccc"
         inkscape:connector-curvature="0"
         d="m 356.22697,225.44775 44.69144,0 -8.93829,40.2223 -26.56231,-0.39104 z m 8.93829,40.2223 26.81486,0 0,362.00065 -26.81486,0 z"
         style="opacity:0.98999999000000005;fill:#eeeeee;stroke:#000000;stroke-width:8.93828773000000080;stroke-linejoin:bevel;stroke-miterlimit:4;stroke-dasharray:none"
         id="rect3001"
         inkscape:export-filename="C:\Users\mauricio\projects\space5\client\res\gfx\coco.png"
         inkscape:export-xdpi="75"
         inkscape:export-ydpi="75" />
      <path
         sodipodi:type="arc"
         style="opacity:0.98999999;fill:#eeeeee;stroke:#000000;stroke-width:1;stroke-linejoin:miter;stroke-miterlimit:4;stroke-dasharray:none"
         id="path3793"
         sodipodi:cx="192.5"
         sodipodi:cy="37.5"
         sodipodi:rx="4.5"
         sodipodi:ry="4.5"
         d="m 197,37.5 a 4.5,4.5 0 1 1 -9,0 4.5,4.5 0 1 1 9,0 z"
         transform="matrix(8.9382878,0,0,8.9382878,-1342.0477,69.027716)"
         inkscape:export-filename="C:\Users\mauricio\projects\space5\client\res\gfx\coco.png"
         inkscape:export-xdpi="75"
         inkscape:export-ydpi="75" />
      <path
         style="opacity:0.98999999000000005;fill:#eeeeee;stroke:#ffffff;stroke-width:1;stroke-linejoin:bevel;stroke-miterlimit:4;stroke-dasharray:none;stroke-opacity:1"
         d="M 265 40 C 263.05191 40 261.16366 40.234706 259.34375 40.65625 L 265 44.78125 L 270.65625 40.65625 C 268.83634 40.234706 266.94809 40 265 40 z M 246.75 47.9375 C 244.16735 50.699689 242.18531 54.036556 241.0625 57.75 L 247.5 54.90625 L 246.75 47.9375 z M 283.25 47.9375 L 282.5 54.90625 L 288.9375 57.75 C 287.81469 54.036556 285.83265 50.699689 283.25 47.9375 z M 241.0625 72.25 C 242.18531 75.963444 244.16735 79.300311 246.75 82.0625 L 247.5 75.09375 L 241.0625 72.25 z M 288.9375 72.25 L 282.5 75.09375 L 283.25 82.0625 C 285.83265 79.300311 287.81469 75.963444 288.9375 72.25 z M 265 85.21875 L 259.34375 89.34375 C 261.16366 89.765294 263.05191 90 265 90 C 266.94809 90 268.83634 89.765294 270.65625 89.34375 L 265 85.21875 z "
         transform="matrix(8.9382878,0,0,8.9382878,-1342.0477,46.681996)"
         id="path3796"
         inkscape:export-filename="C:\Users\mauricio\projects\space5\client\res\gfx\small_selection.png"
         inkscape:export-xdpi="75"
         inkscape:export-ydpi="75" />
    </g>
  </g>
</svg>
