<?xml version="1.0" encoding="UTF-8" standalone="no"?>
<!-- Created with Inkscape (http://www.inkscape.org/) -->

<svg
   xmlns:dc="http://purl.org/dc/elements/1.1/"
   xmlns:cc="http://creativecommons.org/ns#"
   xmlns:rdf="http://www.w3.org/1999/02/22-rdf-syntax-ns#"
   xmlns:svg="http://www.w3.org/2000/svg"
   xmlns="http://www.w3.org/2000/svg"
   xmlns:sodipodi="http://sodipodi.sourceforge.net/DTD/sodipodi-0.dtd"
   xmlns:inkscape="http://www.inkscape.org/namespaces/inkscape"
   width="210mm"
   height="297mm"
   id="svg2"
   version="1.1"
   inkscape:version="0.48.2 r9819"
   sodipodi:docname="ponyo.svg">
  <defs
     id="defs4" />
  <sodipodi:namedview
     id="base"
     pagecolor="#ffffff"
     bordercolor="#666666"
     borderopacity="1.0"
     inkscape:pageopacity="0.0"
     inkscape:pageshadow="2"
     inkscape:zoom="1.4142136"
     inkscape:cx="277.18966"
     inkscape:cy="657.6548"
     inkscape:document-units="px"
     inkscape:current-layer="layer1"
     showgrid="false"
     inkscape:window-width="1440"
     inkscape:window-height="838"
     inkscape:window-x="-8"
     inkscape:window-y="-8"
     inkscape:window-maximized="1" />
  <metadata
     id="metadata7">
    <rdf:RDF>
      <cc:Work
         rdf:about="">
        <dc:format>image/svg+xml</dc:format>
        <dc:type
           rdf:resource="http://purl.org/dc/dcmitype/StillImage" />
        <dc:title></dc:title>
      </cc:Work>
    </rdf:RDF>
  </metadata>
  <g
     inkscape:label="Camada 1"
     inkscape:groupmode="layer"
     id="layer1">
    <path
       style="opacity:0.98999999;fill:#fdca01;stroke:none"
       d="m 333.0473,283.73712 c 0,33.58509 -29.91704,60.81119 -66.82159,60.81119 -36.90455,0 -66.8216,-6.72 -66.8216,-40.30509 0,-12.75354 -11.94939,-50.75306 -4.57684,-60.52999 12.04228,-15.96959 48.50795,-20.78729 71.39844,-20.78729 36.90455,0 66.82159,27.22609 66.82159,60.81118 z"
       id="path4228"
       inkscape:connector-curvature="0"
       sodipodi:nodetypes="ssssss" />
    <path
       sodipodi:type="arc"
       style="opacity:0.98999999000000005;fill:#fdd99b;stroke:none"
       id="path4101"
       sodipodi:cx="298.5"
       sodipodi:cy="345.86218"
       sodipodi:rx="96.5"
       sodipodi:ry="96.5"
       d="m 395,345.86218 a 96.5,96.5 0 1 1 -193,0 96.5,96.5 0 1 1 193,0 z"
       transform="translate(3,0)"
       inkscape:export-filename="C:\Users\mauricio\projects\hellococos\res\edudu.png"
       inkscape:export-xdpi="75"
       inkscape:export-ydpi="75" />
    <g
       id="g4164"
       inkscape:export-filename="C:\Users\mauricio\projects\hellococos\res\edudu.png"
       inkscape:export-xdpi="75"
       inkscape:export-ydpi="75">
      <g
         id="g4139">
        <path
           sodipodi:type="arc"
           style="opacity:0.98999999000000005;fill:#fdd99b;stroke:none"
           id="path4113"
           sodipodi:cx="231"
           sodipodi:cy="344.36218"
           sodipodi:rx="49"
           sodipodi:ry="49"
           d="m 280,344.36218 c 0,27.06196 -21.93805,49 -49,49 -27.06195,0 -49,-21.93804 -49,-49 0,-27.06195 21.93805,-49 49,-49 27.06195,0 49,21.93805 49,49 z" />
        <path
           sodipodi:type="arc"
           style="opacity:0.98999999;fill:#ffffff;stroke:none"
           id="path4115"
           sodipodi:cx="228"
           sodipodi:cy="344.36218"
           sodipodi:rx="31"
           sodipodi:ry="31"
           d="m 259,344.36218 c 0,17.12083 -13.87917,31 -31,31 -17.12083,0 -31,-13.87917 -31,-31 0,-17.12082 13.87917,-31 31,-31 17.12083,0 31,13.87918 31,31 z"
           transform="translate(3,0)" />
        <path
           sodipodi:type="arc"
           style="opacity:0.98999999;fill:#000000;stroke:none"
           id="path4117"
           sodipodi:cx="225"
           sodipodi:cy="344.36218"
           sodipodi:rx="18"
           sodipodi:ry="18"
           d="m 243,344.36218 c 0,9.94113 -8.05887,18 -18,18 -9.94113,0 -18,-8.05887 -18,-18 0,-9.94112 8.05887,-18 18,-18 9.94113,0 18,8.05888 18,18 z"
           transform="translate(6,0)" />
        <path
           sodipodi:type="arc"
           style="opacity:0.98999999;fill:#ffffff;stroke:none"
           id="path4123"
           sodipodi:cx="235"
           sodipodi:cy="337.36218"
           sodipodi:rx="5"
           sodipodi:ry="5"
           d="m 240,337.36218 c 0,2.76143 -2.23858,5 -5,5 -2.76142,0 -5,-2.23857 -5,-5 0,-2.76142 2.23858,-5 5,-5 2.76142,0 5,2.23858 5,5 z" />
      </g>
      <g
         id="g4158">
        <path
           transform="translate(141,0)"
           sodipodi:type="arc"
           style="opacity:0.98999999000000005;fill:#fdd99b;stroke:none"
           id="path4113-1"
           sodipodi:cx="231"
           sodipodi:cy="344.36218"
           sodipodi:rx="49"
           sodipodi:ry="49"
           d="m 280,344.36218 c 0,27.06196 -21.93805,49 -49,49 -27.06195,0 -49,-21.93804 -49,-49 0,-27.06195 21.93805,-49 49,-49 27.06195,0 49,21.93805 49,49 z" />
        <path
           sodipodi:type="arc"
           style="opacity:0.98999999;fill:#ffffff;stroke:none"
           id="path4115-7"
           sodipodi:cx="228"
           sodipodi:cy="344.36218"
           sodipodi:rx="31"
           sodipodi:ry="31"
           d="m 259,344.36218 c 0,17.12083 -13.87917,31 -31,31 -17.12083,0 -31,-13.87917 -31,-31 0,-17.12082 13.87917,-31 31,-31 17.12083,0 31,13.87918 31,31 z"
           transform="translate(144,0)" />
        <path
           sodipodi:type="arc"
           style="opacity:0.98999999;fill:#000000;stroke:none"
           id="path4117-4"
           sodipodi:cx="225"
           sodipodi:cy="344.36218"
           sodipodi:rx="18"
           sodipodi:ry="18"
           d="m 243,344.36218 c 0,9.94113 -8.05887,18 -18,18 -9.94113,0 -18,-8.05887 -18,-18 0,-9.94112 8.05887,-18 18,-18 9.94113,0 18,8.05888 18,18 z"
           transform="translate(147,0)" />
        <path
           transform="translate(141,0)"
           sodipodi:type="arc"
           style="opacity:0.98999999;fill:#ffffff;stroke:none"
           id="path4123-0"
           sodipodi:cx="235"
           sodipodi:cy="337.36218"
           sodipodi:rx="5"
           sodipodi:ry="5"
           d="m 240,337.36218 c 0,2.76143 -2.23858,5 -5,5 -2.76142,0 -5,-2.23857 -5,-5 0,-2.76142 2.23858,-5 5,-5 2.76142,0 5,2.23858 5,5 z" />
      </g>
    </g>
    <path
       style="opacity:0.98999999000000005;fill:#816647;stroke:none"
       d="m 252,291.36218 c 0,3.866 -1.23127,5.60856 -3.90926,5.58578 -6.79715,-0.0578 -13.28358,-0.0582 -20.57413,0.0378 -8.07247,0.10628 8.54222,-12.55923 15.68699,-12.62359 4.85811,0 8.7964,3.13401 8.7964,7 z"
       id="path4176"
       inkscape:connector-curvature="0"
       sodipodi:nodetypes="ssscs"
       inkscape:export-filename="C:\Users\mauricio\projects\hellococos\res\edudu.png"
       inkscape:export-xdpi="75"
       inkscape:export-ydpi="75" />
    <path
       style="opacity:0.98999999000000005;fill:#d9bb7a;stroke:none"
       d="m 356.73538,400.40973 c 0,10.54416 -27.26882,26.16296 -54.80078,26.16296 -27.53196,0 -53.03301,-17.03301 -53.03301,-27.57717 0,-10.54415 25.1475,-1.76777 52.67946,-1.76777 27.53196,0 55.15433,-7.36217 55.15433,3.18198 z"
       id="path4181"
       inkscape:connector-curvature="0"
       sodipodi:nodetypes="sssss"
       inkscape:export-filename="C:\Users\mauricio\projects\hellococos\res\edudu.png"
       inkscape:export-xdpi="75"
       inkscape:export-ydpi="75" />
    <path
       sodipodi:nodetypes="sssss"
       inkscape:connector-curvature="0"
       id="path4184"
       d="m 348.60365,403.11889 c 0,5.46263 -23.51377,13.5543 -47.25444,13.5543 -23.74068,0 -45.73011,-8.82433 -45.73011,-14.28697 0,-5.46263 21.68457,-0.91583 45.42524,-0.91583 23.74067,0 47.55931,-3.81414 47.55931,1.6485 z"
       style="opacity:0.98999999;fill:#ffffff;stroke:none"
       inkscape:export-filename="C:\Users\mauricio\projects\hellococos\res\edudu.png"
       inkscape:export-xdpi="75"
       inkscape:export-ydpi="75" />
    <path
       sodipodi:nodetypes="ssscs"
       inkscape:connector-curvature="0"
       id="path4186"
       d="m 350.3544,291.36218 c 0,3.866 1.23127,5.60856 3.90926,5.58578 6.79715,-0.0578 13.28358,-0.0582 20.57413,0.0378 8.07247,0.10628 -8.54222,-12.55923 -15.68699,-12.62359 -4.85811,0 -8.7964,3.13401 -8.7964,7 z"
       style="opacity:0.98999999000000005;fill:#816647;stroke:none"
       inkscape:export-filename="C:\Users\mauricio\projects\hellococos\res\edudu.png"
       inkscape:export-xdpi="75"
       inkscape:export-ydpi="75" />
    <rect
       style="opacity:0.98999999000000005;fill:#8b4513;stroke:none"
       id="rect4188"
       width="125.86501"
       height="125.86501"
       x="294.15643"
       y="797.09662" />
    <rect
       y="797.09662"
       x="294.15643"
       height="27.577171"
       width="125.86501"
       id="rect4190"
       style="opacity:0.98999999000000005;fill:#339900;stroke:none" />
    <path
       style="opacity:0.98999999;fill:#b8860b;stroke:none"
       d="m 310.41987,839.52307 23.33452,0 c 3.52564,0 23.3266,3.54147 20.5061,5.65685 l -14.14214,10.60661 c -2.8205,2.11538 3.40826,15.75143 0,14.84924 l -24.04163,-6.36396 c -3.40825,-0.90218 -12.02081,-4.95965 -12.02081,-8.48528 l 0,-9.8995 c 0,-3.52563 2.83832,-6.36396 6.36396,-6.36396 z"
       id="rect4192"
       inkscape:connector-curvature="0"
       sodipodi:nodetypes="sssssssss" />
    <path
       style="opacity:0.98999999;fill:#b87c00;stroke:none"
       d="m 377.59501,846.59412 30.40559,0 c 3.52564,0 6.36396,2.83832 6.36396,6.36396 l 0,22.62741 c 0,3.52564 -0.71502,15.55042 -3.53553,13.43504 l -25.45585,-19.09189 c -2.8205,-2.11537 -32.40695,-5.52112 -29.69848,-7.77818 l 12.72792,-10.60659 c 2.70848,-2.25706 5.66676,-4.94975 9.19239,-4.94975 z"
       id="rect4194"
       inkscape:connector-curvature="0"
       sodipodi:nodetypes="sssssssss" />
    <path
       style="opacity:0.98999999;fill:#b8860b;stroke:none"
       d="m 311.12697,871.34289 22.62742,3.53553 c 3.48337,0.54428 6.36396,2.83832 6.36396,6.36396 l 0,19.09188 c 0,3.52564 -2.83832,6.36396 -6.36396,6.36396 l -11.31371,0 c -3.52563,0 -3.6109,-9.81836 -6.36396,-12.02081 l -10.6066,-8.48528 c -2.75306,-2.20245 2.17349,-15.39352 5.65685,-14.84924 z"
       id="rect4196"
       inkscape:connector-curvature="0"
       sodipodi:nodetypes="sssssssss" />
    <path
       style="opacity:0.98999999;fill:#743800;stroke:none"
       d="m 385.72676,881.24233 25.45584,16.97056 c 0.81487,0.54325 1.76777,0.78842 1.76777,1.76777 l 0,14.84924 c 0,0.97934 -0.78842,1.76777 -1.76777,1.76777 l -18.38477,0 c -0.97935,0 -15.06793,1.85543 -14.49569,1.06066 l 12.72792,-17.67767 c 0.57224,-0.79478 -6.11817,-19.28158 -5.3033,-18.73833 z"
       id="rect4200"
       inkscape:connector-curvature="0"
       sodipodi:nodetypes="sssssssss" />
    <path
       style="opacity:0.98999999;fill:#c88c00;stroke:none"
       d="m 353.90696,878.41393 19.79899,9.89949 c 3.32861,1.66431 4.91019,3.46433 6.71751,6.71751 l 3.53553,6.36396 c 1.80733,3.25318 -6.63274,5.14843 -10.25304,6.01041 l -29.69849,7.07107 c -3.6203,0.86197 6.71752,-10.06708 6.71752,-13.78859 l 0,-5.65685 c 0,-3.7215 -0.14663,-18.28131 3.18198,-16.617 z"
       id="rect4202"
       inkscape:connector-curvature="0"
       sodipodi:nodetypes="sssssssss" />
    <path
       style="opacity:0.98999999;fill:#339900;stroke:none"
       d="m 310.72926,822.90603 10.65076,-10.65076 11.35786,11.35786 -11.35787,33.98528 z"
       id="rect4209"
       inkscape:connector-curvature="0"
       sodipodi:nodetypes="ccccc" />
    <path
       sodipodi:nodetypes="ccccc"
       inkscape:connector-curvature="0"
       id="path4212"
       d="m 320.38132,830.83517 -2.97919,-14.76488 15.74511,-3.17699 22.02553,28.26441 z"
       style="opacity:0.98999999;fill:#339900;stroke:none" />
    <path
       style="opacity:0.98999999;fill:#339900;stroke:none"
       d="m 321.23107,832.34487 5.8272,-10.59602 9.49682,7.39361 -2.94408,29.91992 z"
       id="path4214"
       inkscape:connector-curvature="0"
       sodipodi:nodetypes="ccccc" />
    <path
       sodipodi:nodetypes="ccccc"
       inkscape:connector-curvature="0"
       id="path4216"
       d="m 314.77019,816.43277 12.09081,0.21033 -2.10865,11.84941 -27.83736,11.35564 z"
       style="opacity:0.98999999;fill:#339900;stroke:none" />
    <path
       style="opacity:0.98999999;fill:#339900;stroke:none"
       d="m 385.8685,814.67285 13.13153,-2.3877 -5.94979,12.02592 -33.87889,17.06172 z"
       id="path4218"
       inkscape:connector-curvature="0"
       sodipodi:nodetypes="ccccc" />
    <path
       sodipodi:nodetypes="ccccc"
       inkscape:connector-curvature="0"
       id="path4220"
       d="m 380.69136,822.50927 1.46824,-13.26584 9.82155,9.1411 6.65805,37.3437 z"
       style="opacity:0.98999999;fill:#339900;stroke:none"
       inkscape:transform-center-x="-4.2426407"
       inkscape:transform-center-y="15.556349" />
    <path
       inkscape:transform-center-y="11.23506"
       inkscape:transform-center-x="0.7213693"
       style="opacity:0.98999999;fill:#339900;stroke:none"
       d="m 378.72369,814.4354 7.13687,-5.6088 4.81829,11.39782 -10.39221,23.29261 z"
       id="path4222"
       inkscape:connector-curvature="0"
       sodipodi:nodetypes="ccccc" />
    <path
       sodipodi:nodetypes="ccccc"
       inkscape:connector-curvature="0"
       id="path4224"
       d="m 381.01982,820.01046 -0.23651,-9.07401 12.01955,2.94224 12.47628,22.24604 z"
       style="opacity:0.98999999;fill:#339900;stroke:none"
       inkscape:transform-center-x="-7.6085857"
       inkscape:transform-center-y="8.593835" />
    <path
       transform="translate(-48.083261,-53.033009)"
       style="opacity:0.98999999;fill:#fdca01;stroke:none"
       d="m 451.84123,301.76833 c 0,4.83535 -10.99939,42.56057 -13.24065,52.01842 -1.60836,6.7871 -13.72029,-15.12031 -21.45297,-19.18669 -32.00607,-16.83102 -38.39834,1.88567 -62.28182,5.48603 -36.15601,5.45041 -36.74418,-13.92258 -64.24492,-8.26572 -14.54958,2.99282 -18.45477,24.35792 -28.46117,17.95412 -10.77638,-6.89656 26.33986,-42.82946 26.33986,-53.66301 0,-20.89305 25.01001,-37.83021 55.86143,-37.83021 30.85142,0 107.48024,22.59401 107.48024,43.48706 z"
       id="path4230"
       inkscape:connector-curvature="0"
       sodipodi:nodetypes="sssssssss" />
    <path
       style="fill:#d9bb7a;stroke:none"
       d="m 283.54982,371.5987 c 2.10785,-4.71198 10.66642,-4.66979 12.72792,0.1732"
       id="path4236"
       inkscape:connector-curvature="0"
       sodipodi:nodetypes="cc" />
    <path
       sodipodi:nodetypes="cc"
       inkscape:connector-curvature="0"
       id="path4240"
       d="m 306.17724,371.5987 c 2.10785,-4.71198 10.66642,-4.66979 12.72792,0.1732"
       style="fill:#d9bb7a;stroke:none" />
  </g>
</svg>
